<?xml version="1.0" encoding="UTF-8" standalone="no"?>
<!-- Created with Inkscape (http://www.inkscape.org/) -->

<svg
   width="16.065504mm"
   height="3.4897399mm"
   viewBox="0 0 16.065504 3.4897399"
   version="1.1"
   id="svg1"
   xmlns:xlink="http://www.w3.org/1999/xlink"
   xmlns="http://www.w3.org/2000/svg"
   xmlns:svg="http://www.w3.org/2000/svg">
  <defs
     id="defs1">
    <linearGradient
       id="linearGradient1">
      <stop
         style="stop-color:#ec4e20;stop-opacity:1;"
         offset="0"
         id="stop1" />
      <stop
         style="stop-color:#f1c40f;stop-opacity:1;"
         offset="0.49748743"
         id="stop3" />
      <stop
         style="stop-color:#00d9c0;stop-opacity:1;"
         offset="1"
         id="stop2" />
    </linearGradient>
    <linearGradient
       xlink:href="#linearGradient1"
       id="linearGradient2"
       x1="28.5331"
       y1="33.96059"
       x2="34.027054"
       y2="36.840485"
       gradientUnits="userSpaceOnUse" />
    <clipPath
       clipPathUnits="userSpaceOnUse"
       id="clipPath4">
      <path
         style="font-weight:900;font-size:3.175px;font-family:Poppins;-inkscape-font-specification:'Poppins Heavy';stroke-width:0.264583"
         d="m 20.461168,34.938613 q 0.2032,0.04763 0.314325,0.19685 0.1143,0.14605 0.1143,0.339725 0,0.295275 -0.19685,0.4572 -0.193675,0.15875 -0.5588,0.15875 h -1.177925 v -2.2479 h 1.146175 q 0.3429,0 0.53975,0.149225 0.19685,0.149225 0.19685,0.434975 0,0.19685 -0.104775,0.333375 -0.1016,0.13335 -0.27305,0.1778 z m -0.8001,-0.219075 h 0.27305 q 0.09525,0 0.1397,-0.0381 0.04763,-0.0381 0.04763,-0.117475 0,-0.08255 -0.04763,-0.12065 -0.04445,-0.04127 -0.1397,-0.04127 h -0.27305 z m 0.320675,0.80645 q 0.09525,0 0.1397,-0.03493 0.04763,-0.0381 0.04763,-0.12065 0,-0.161925 -0.187325,-0.161925 h -0.320675 v 0.3175 z m 1.851025,-0.89535 q 0.10795,-0.155575 0.263525,-0.24765 0.155575,-0.09525 0.32385,-0.09525 v 0.752475 h -0.200025 q -0.200025,0 -0.295275,0.06985 -0.09208,0.06985 -0.09208,0.24765 v 0.733425 h -0.70485 v -1.7907 h 0.70485 z m 0.682629,0.56515 q 0,-0.282575 0.09525,-0.48895 0.09842,-0.20955 0.2667,-0.3175 0.168275,-0.111125 0.377825,-0.111125 0.174625,0 0.301625,0.07302 0.127,0.06985 0.193675,0.193675 v -0.244475 h 0.701675 v 1.7907 h -0.701675 v -0.244475 q -0.06668,0.123825 -0.193675,0.19685 -0.127,0.06985 -0.301625,0.06985 -0.20955,0 -0.377825,-0.10795 -0.168275,-0.111125 -0.2667,-0.3175 -0.09525,-0.20955 -0.09525,-0.492125 z m 1.235075,0 q 0,-0.142875 -0.07303,-0.22225 -0.07303,-0.07937 -0.187325,-0.07937 -0.1143,0 -0.187325,0.07937 -0.07303,0.07937 -0.07303,0.22225 0,0.142875 0.07303,0.22225 0.07302,0.07937 0.187325,0.07937 0.1143,0 0.187325,-0.07937 0.07303,-0.07937 0.07303,-0.22225 z m 1.374775,-1.038225 q -0.18415,0 -0.295275,-0.09842 -0.111125,-0.09842 -0.111125,-0.24765 0,-0.1524 0.111125,-0.250825 0.111125,-0.1016 0.295275,-0.1016 0.180975,0 0.2921,0.1016 0.111125,0.09842 0.111125,0.250825 0,0.149225 -0.111125,0.24765 -0.111125,0.09842 -0.2921,0.09842 z m 0.34925,0.142875 v 1.7907 h -0.70485 v -1.7907 z m 1.571628,-0.0127 q 0.307975,0 0.479425,0.206375 0.174625,0.206375 0.174625,0.5588 v 1.038225 H 26.9985 v -0.949325 q 0,-0.127 -0.06985,-0.200025 -0.06668,-0.0762 -0.180975,-0.0762 -0.117475,0 -0.18415,0.0762 -0.06668,0.07303 -0.06668,0.200025 v 0.949325 h -0.70485 v -1.7907 h 0.70485 v 0.27305 q 0.08255,-0.127 0.219075,-0.206375 0.1397,-0.07937 0.3302,-0.07937 z m 0.8636,0.90805 q 0,-0.282575 0.09525,-0.48895 0.09843,-0.20955 0.2667,-0.3175 0.168275,-0.111125 0.377825,-0.111125 0.174625,0 0.29845,0.07302 0.127,0.06985 0.193675,0.193675 v -0.803275 h 0.70485 v 2.3495 h -0.70485 v -0.244475 q -0.06668,0.123825 -0.193675,0.19685 -0.123825,0.06985 -0.29845,0.06985 -0.20955,0 -0.377825,-0.10795 -0.168275,-0.111125 -0.2667,-0.3175 -0.09525,-0.20955 -0.09525,-0.492125 z m 1.235075,0 q 0,-0.142875 -0.07303,-0.22225 -0.07303,-0.07937 -0.187325,-0.07937 -0.1143,0 -0.187325,0.07937 -0.07303,0.07937 -0.07303,0.22225 0,0.142875 0.07303,0.22225 0.07303,0.07937 0.187325,0.07937 0.1143,0 0.187325,-0.07937 0.07303,-0.07937 0.07303,-0.22225 z m 3.041652,-0.89535 -1.146175,2.64795 h -0.771525 l 0.45085,-0.94615 -0.746125,-1.7018 h 0.784225 l 0.33655,0.90805 0.314325,-0.90805 z m 1.86055,0.879475 q 0,0.07303 -0.0095,0.1397 h -1.133475 q 0.01588,0.231775 0.193675,0.231775 0.1143,0 0.1651,-0.104775 h 0.746125 q -0.0381,0.1905 -0.161925,0.3429 -0.12065,0.149225 -0.307975,0.238125 -0.18415,0.08573 -0.4064,0.08573 -0.2667,0 -0.47625,-0.111125 -0.206375,-0.111125 -0.32385,-0.3175 -0.1143,-0.20955 -0.1143,-0.48895 0,-0.2794 0.1143,-0.485775 0.117475,-0.20955 0.32385,-0.320675 0.20955,-0.111125 0.47625,-0.111125 0.2667,0 0.473075,0.111125 0.20955,0.10795 0.32385,0.31115 0.117475,0.2032 0.117475,0.479425 z m -0.714375,-0.168275 q 0,-0.0889 -0.05715,-0.13335 -0.05715,-0.04763 -0.142875,-0.04763 -0.187325,0 -0.219075,0.180975 z m 1.285873,1.1049 q -0.18415,0 -0.295275,-0.09842 -0.111125,-0.09842 -0.111125,-0.24765 0,-0.1524 0.111125,-0.250825 0.111125,-0.1016 0.295275,-0.1016 0.180975,0 0.2921,0.1016 0.111125,0.09842 0.111125,0.250825 0,0.149225 -0.111125,0.24765 -0.111125,0.09842 -0.2921,0.09842 z"
         id="path4"
         aria-label="Braindye." />
    </clipPath>
  </defs>
  <g
     id="layer1"
     transform="translate(-18.957236,-33.45865)">
    <path
       style="font-weight:900;font-size:3.175px;font-family:Poppins;-inkscape-font-specification:'Poppins Heavy';fill:#e8ebed;stroke-width:0.264583"
       d="m 20.462187,34.938192 q 0.2032,0.04762 0.314325,0.19685 0.1143,0.14605 0.1143,0.339725 0,0.295275 -0.19685,0.4572 -0.193675,0.15875 -0.5588,0.15875 h -1.177925 v -2.2479 h 1.146175 q 0.3429,0 0.53975,0.149225 0.19685,0.149225 0.19685,0.434975 0,0.19685 -0.104775,0.333375 -0.1016,0.13335 -0.27305,0.1778 z m -0.8001,-0.219075 h 0.27305 q 0.09525,0 0.1397,-0.0381 0.04763,-0.0381 0.04763,-0.117475 0,-0.08255 -0.04763,-0.12065 -0.04445,-0.04127 -0.1397,-0.04127 h -0.27305 z m 0.320675,0.80645 q 0.09525,0 0.1397,-0.03493 0.04763,-0.0381 0.04763,-0.12065 0,-0.161925 -0.187325,-0.161925 h -0.320675 v 0.3175 z m 1.851025,-0.89535 q 0.10795,-0.155575 0.263525,-0.24765 0.155575,-0.09525 0.32385,-0.09525 v 0.752475 h -0.200025 q -0.200025,0 -0.295275,0.06985 -0.09207,0.06985 -0.09207,0.24765 v 0.733425 h -0.70485 v -1.7907 h 0.70485 z m 0.682628,0.56515 q 0,-0.282575 0.09525,-0.48895 0.09843,-0.20955 0.2667,-0.3175 0.168275,-0.111125 0.377825,-0.111125 0.174625,0 0.301625,0.07303 0.127,0.06985 0.193675,0.193675 v -0.244475 h 0.701675 v 1.7907 H 23.75149 v -0.244475 q -0.06668,0.123825 -0.193675,0.19685 -0.127,0.06985 -0.301625,0.06985 -0.20955,0 -0.377825,-0.10795 -0.168275,-0.111125 -0.2667,-0.3175 -0.09525,-0.20955 -0.09525,-0.492125 z m 1.235075,0 q 0,-0.142875 -0.07303,-0.22225 -0.07302,-0.07937 -0.187325,-0.07937 -0.1143,0 -0.187325,0.07937 -0.07303,0.07937 -0.07303,0.22225 0,0.142875 0.07303,0.22225 0.07303,0.07937 0.187325,0.07937 0.1143,0 0.187325,-0.07937 0.07303,-0.07937 0.07303,-0.22225 z m 1.374776,-1.038225 q -0.18415,0 -0.295275,-0.09842 -0.111125,-0.09842 -0.111125,-0.24765 0,-0.1524 0.111125,-0.250825 0.111125,-0.1016 0.295275,-0.1016 0.180975,0 0.2921,0.1016 0.111125,0.09842 0.111125,0.250825 0,0.149225 -0.111125,0.24765 -0.111125,0.09842 -0.2921,0.09842 z m 0.34925,0.142875 v 1.7907 h -0.70485 v -1.7907 z m 1.571626,-0.0127 q 0.307975,0 0.479425,0.206375 0.174625,0.206375 0.174625,0.5588 v 1.038225 h -0.701675 v -0.949325 q 0,-0.127 -0.06985,-0.200025 -0.06668,-0.0762 -0.180975,-0.0762 -0.117475,0 -0.18415,0.0762 -0.06668,0.07303 -0.06668,0.200025 v 0.949325 h -0.70485 v -1.7907 h 0.70485 v 0.27305 q 0.08255,-0.127 0.219075,-0.206375 0.1397,-0.07937 0.3302,-0.07937 z m 0.863601,0.90805 q 0,-0.282575 0.09525,-0.48895 0.09842,-0.20955 0.2667,-0.3175 0.168275,-0.111125 0.377825,-0.111125 0.174625,0 0.29845,0.07303 0.127,0.06985 0.193675,0.193675 v -0.803275 h 0.70485 v 2.3495 h -0.70485 v -0.244475 q -0.06668,0.123825 -0.193675,0.19685 -0.123825,0.06985 -0.29845,0.06985 -0.20955,0 -0.377825,-0.10795 -0.168275,-0.111125 -0.2667,-0.3175 -0.09525,-0.20955 -0.09525,-0.492125 z m 1.235075,0 q 0,-0.142875 -0.07302,-0.22225 -0.07303,-0.07937 -0.187325,-0.07937 -0.1143,0 -0.187325,0.07937 -0.07303,0.07937 -0.07303,0.22225 0,0.142875 0.07303,0.22225 0.07302,0.07937 0.187325,0.07937 0.1143,0 0.187325,-0.07937 0.07302,-0.07937 0.07302,-0.22225 z m 3.041652,-0.89535 -1.146175,2.64795 H 30.26977 l 0.45085,-0.94615 -0.746125,-1.7018 h 0.784225 l 0.33655,0.90805 0.314325,-0.90805 z m 1.86055,0.879475 q 0,0.07302 -0.0095,0.1397 h -1.1335 q 0.01588,0.231775 0.193675,0.231775 0.1143,0 0.1651,-0.104775 h 0.746125 q -0.0381,0.1905 -0.161925,0.3429 -0.12065,0.149225 -0.307975,0.238125 -0.18415,0.08572 -0.4064,0.08572 -0.2667,0 -0.47625,-0.111125 -0.206375,-0.111125 -0.32385,-0.3175 -0.1143,-0.20955 -0.1143,-0.48895 0,-0.2794 0.1143,-0.485775 0.117475,-0.20955 0.32385,-0.320675 0.20955,-0.111125 0.47625,-0.111125 0.2667,0 0.473075,0.111125 0.20955,0.10795 0.32385,0.31115 0.117475,0.2032 0.117475,0.479425 z m -0.714375,-0.168275 q 0,-0.0889 -0.05715,-0.13335 -0.05715,-0.04763 -0.142875,-0.04763 -0.187325,0 -0.219075,0.180975 z m 1.285872,1.1049 q -0.18415,0 -0.295275,-0.09843 -0.111125,-0.09842 -0.111125,-0.24765 0,-0.1524 0.111125,-0.250825 0.111125,-0.1016 0.295275,-0.1016 0.180975,0 0.2921,0.1016 0.111125,0.09842 0.111125,0.250825 0,0.149225 -0.111125,0.24765 -0.111125,0.09843 -0.2921,0.09843 z"
       id="text1-8"
       aria-label="Braindye." />
    <path
       id="rect1"
       clip-path="url(#clipPath4)"
       style="fill:url(#linearGradient2);stroke-width:0.264583"
       transform="translate(0.00103353)"
       d="m 27.868509,33.229542 h 6.247155 v 5.006584 h -6.247155 z" />
  </g>
</svg>
